<svg xmlns="http://www.w3.org/2000/svg" viewBox="0 0 100 100">
  <!-- Rounded square background -->
  <rect x="0" y="0" width="100" height="100" rx="20" ry="20" fill="#4E3083" />

  <!-- Centered, larger, smooth white star -->
  <path
    d="M50 15
           c3 0 5.5 2 6.5 5
           l3.5 12
           c0.8 2.8 2.9 5 5.5 5.8
           l12 3.5
           c3 0.8 5 3.5 5 6.7
           s-2 5.9-5 6.7
           l-12 3.5
           c-2.6 0.8-4.7 3-5.5 5.8
           l-3.5 12
           c-1 3-3.5 5-6.5 5
           s-5.5-2-6.5-5
           l-3.5-12
           c-0.8-2.8-2.9-5-5.5-5.8
           l-12-3.5
           c-3-0.8-5-3.5-5-6.7
           s2-5.9 5-6.7
           l12-3.5
           c2.6-0.8 4.7-3 5.5-5.8
           l3.5-12
           c1-3 3.5-5 6.5-5
           z"
    fill="#FFFFFF" />
</svg>